<svg xmlns="http://www.w3.org/2000/svg" width="74" height="79" viewBox="0 0 74 79"><g fill="#fff" stroke="#000" stroke-width="1"><rect width="74" height="79" rx="7" stroke="none"/><rect x="0.5" y="0.5" width="73" height="78" rx="6.5" fill="none"/></g><g transform="translate(7 17)"><rect width="61" height="53" rx="2" transform="translate(0 6)" fill="#ffe599"/><g fill="#fff4d4" stroke="#000" stroke-linejoin="round" stroke-width="0.25"><rect width="61" height="11" rx="2" stroke="none"/><rect x="0.125" y="0.125" width="60.75" height="10.75" rx="1.875" fill="none"/></g><circle cx="2.5" cy="2.5" r="2.5" transform="translate(5 3)"/><rect width="1" height="2" transform="translate(7 3)" fill="#fff"/><circle cx="2.5" cy="2.5" r="2.5" transform="translate(14 3)"/><rect width="1" height="2" transform="translate(16 3)" fill="#fff"/><circle cx="2.5" cy="2.5" r="2.5" transform="translate(23 3)"/><rect width="1" height="2" transform="translate(25 3)" fill="#fff"/><circle cx="2.5" cy="2.5" r="2.5" transform="translate(32 3)"/><rect width="1" height="2" transform="translate(34 3)" fill="#fff"/><rect width="4" height="2" transform="translate(52 6)"/><rect width="4" height="2" transform="translate(52 3)" fill="#f77"/><g transform="translate(1 13)" fill="#bfa966" stroke="#000" stroke-width="0.25"><rect width="59" height="45" rx="2" stroke="none"/><rect x="0.125" y="0.125" width="58.75" height="44.75" rx="1.875" fill="none"/></g></g></svg>