<svg id="Component_11_2" data-name="Component 11 – 2" xmlns="http://www.w3.org/2000/svg" width="73" height="79" viewBox="0 0 73 79">
  <rect id="Rectangle_8" data-name="Rectangle 8" width="73" height="79" rx="7" fill="#fff"/>
  <g id="Component_10_1" data-name="Component 10 – 1" transform="translate(11.224)">
    <path id="Path_1" data-name="Path 1" d="M266.606,418.146H262s-4.459-.213-6.366-.44a27.993,27.993,0,0,1-6.655-2.06,10.048,10.048,0,0,1-2.952-1.96,20.3,20.3,0,0,1-2.5-3.38,14.2,14.2,0,0,1-2.068-5.426,13.826,13.826,0,0,1,.353-6.992c.583-2.264,6.6-16.459,6.952-18.223a21.479,21.479,0,0,0,.66-3.721c0-1.036.107-2.47,0-3.392a6.987,6.987,0,0,0-.349-2.041c-.305-.865-1.905-5.176-2.382-7.13s-.97-4.021-1.1-4.995a31.931,31.931,0,0,1-.063-3.423,18.26,18.26,0,0,1,.483-3.845,9.928,9.928,0,0,1,1.594-2.7c1.672-2,3-1.675,3-1.675s1.471-.015,1.324,2.193a19.958,19.958,0,0,0,.44,4.814,8.745,8.745,0,0,0,1.77,3.341,6.077,6.077,0,0,0,1.715,1.257,13.546,13.546,0,0,0,3.039,1.272c2.2.688,2.6-.829,2.722-1.158a12.205,12.205,0,0,1,.573-1.49,6.889,6.889,0,0,1,.953-1.375l7.128,8.353s-.607-.193,1.149.643,3.014,1.435,4.575.942a16.243,16.243,0,0,0,3.816-1.97,5.072,5.072,0,0,0,1.669-3.384,9.072,9.072,0,0,1,.74-2.886,2.472,2.472,0,0,1,.784-.84,1.18,1.18,0,0,1,.9-.214,2.919,2.919,0,0,1,1.1.379,4.187,4.187,0,0,1,1.371,1.341,5.12,5.12,0,0,1,.763,2.036,12.05,12.05,0,0,1,.35,2.9,12.585,12.585,0,0,1-.133,2.01,14.162,14.162,0,0,1-.55,2.5c-.284.906-.35.988-.7,1.927s-.884,2.043-1.151,3.048-1.151,3.591-1.051,4.81a10.361,10.361,0,0,0,.25,2.405,15.464,15.464,0,0,0,1.051,2.932c.634,1.417.717,1.5,1.351,2.866s.584,1.2,1.268,2.7.851,2.01,1.434,3.46a21.3,21.3,0,0,1,1.134,3.245,32.718,32.718,0,0,1,.867,3.805,12.356,12.356,0,0,1,.317,5.14,5.283,5.283,0,0,1-.183,1.829c-.217,1.137-.517,2.175-.767,3.064a15.925,15.925,0,0,1-1.7,3.311,18.393,18.393,0,0,1-2.185,2.207,15.061,15.061,0,0,1-2.385,1.581A18.264,18.264,0,0,1,281.016,417a16.668,16.668,0,0,1-2.7.56,49.526,49.526,0,0,1-4.97.461c-1.835.066-3.024.128-3.958.128h-5.008" transform="translate(-241.157 -340.3)" fill="#a2c4c9"/>
    <path id="Path_2" data-name="Path 2" d="M241.454,326.654c-.912-.026-9.9,0-9.9,0a.886.886,0,0,0-.886.941v1.36s-2.444.8-4.483-2.3a8.578,8.578,0,0,1-.86-6.748,41.854,41.854,0,0,1,1.121-4.106c.4-.991,2.106-5.631,2.506-6.779l.356-2.126a10.947,10.947,0,0,0,0-2.988,58.7,58.7,0,0,0-.845-6.674,1.461,1.461,0,0,1-.068-1.105,1.329,1.329,0,0,1,1.935-.7c1.877.889,2.242,1.125,2.242,1.125v4.368h8.211v-1.046a13.48,13.48,0,0,0,4.436,1.289c2.137.131,5.763-1.48,7.014-3.808s.888-3.445,1.258-4.721,1.311.062,1.6.766a7.209,7.209,0,0,1,.594,2.012,14.554,14.554,0,0,1-1.24,7.653,36.827,36.827,0,0,0-2.059,5.519,17.245,17.245,0,0,0-.049,5.5c.244.994,1.846,4.459,3.238,7.625,1.452,3.3,1.822,4.269,2.586,6.389a19.618,19.618,0,0,1,1.157,4.256c.093.843.409,1.788-.386,2.677a1.83,1.83,0,0,1-2.337.549c-.979-.294-5.043-4.085-5.043-4.085a18.369,18.369,0,0,0-2.9-1.7c-1.3-.549-6.3-.835-6.3-.835v-1.779S242.367,326.68,241.454,326.654Z" transform="translate(-211.128 -274.739)" fill="#fff"/>
    <rect id="Rectangle_25" data-name="Rectangle 25" width="10" height="29" rx="2" transform="translate(21)"/>
  </g>
</svg>
