<svg xmlns="http://www.w3.org/2000/svg" width="610" height="382" viewBox="0 0 610 382"><defs><style>.a,.b{fill:#fff;}.b{stroke:#000;}.c{fill:#d5a6bd;}.d{fill:#b6d7a8;}.e{fill:#ffe599;}.f{fill:#a2c4c9;}.g{stroke:none;}.h{fill:none;}</style></defs><rect class="a" width="610" height="382" rx="17"/><g transform="translate(67 40)"><g class="b"><rect class="g" width="74" height="79" rx="7"/><rect class="h" x="0.5" y="0.5" width="73" height="78" rx="6.5"/></g><g transform="translate(8 15)"><ellipse class="c" cx="29.5" cy="22" rx="29.5" ry="22" transform="translate(0 19)"/><ellipse class="c" cx="14.5" cy="14" rx="14.5" ry="14" transform="translate(23)"/><ellipse class="c" cx="14.5" cy="14" rx="14.5" ry="14" transform="translate(7)"/></g><ellipse cx="7.5" cy="7" rx="7.5" ry="7" transform="translate(30 27)"/><rect width="12" height="20" rx="2" transform="translate(31)"/></g><g transform="translate(199 40)"><rect class="c" width="10" height="79" rx="5"/><rect class="c" width="10" height="79" rx="5" transform="translate(342)"/><rect class="c" width="352" height="10" rx="5" transform="translate(0 69)"/><rect class="c" width="352" height="10" rx="5"/><rect class="c" width="96" height="10" rx="5" transform="translate(26 18)"/><rect class="c" width="21" height="10" rx="5" transform="translate(26 49)"/><rect class="c" width="30" height="10" rx="5" transform="translate(57 49)"/><rect class="c" width="36" height="10" rx="5" transform="translate(95 49)"/><rect class="c" width="35" height="10" rx="3" transform="translate(293 49)"/><g transform="translate(295 18)"><rect class="d" width="10" height="10" rx="5"/><rect class="d" width="10" height="10" rx="5" transform="translate(23)"/><rect class="d" width="10" height="10" rx="5" transform="translate(13)"/></g></g><g transform="translate(67 152)"><g class="b"><rect class="g" width="74" height="79" rx="7"/><rect class="h" x="0.5" y="0.5" width="73" height="78" rx="6.5"/></g><g transform="translate(8 15)"><ellipse class="e" cx="29.5" cy="22" rx="29.5" ry="22" transform="translate(0 19)"/><ellipse class="e" cx="14.5" cy="14" rx="14.5" ry="14" transform="translate(23)"/><ellipse class="e" cx="14.5" cy="14" rx="14.5" ry="14" transform="translate(7)"/></g><ellipse cx="7.5" cy="7" rx="7.5" ry="7" transform="translate(30 27)"/><rect width="12" height="20" rx="2" transform="translate(31)"/></g><g transform="translate(199 152)"><rect class="e" width="10" height="79" rx="5"/><rect class="e" width="10" height="79" rx="5" transform="translate(342)"/><rect class="e" width="352" height="10" rx="5" transform="translate(0 69)"/><rect class="e" width="352" height="10" rx="5"/><rect class="e" width="96" height="10" rx="5" transform="translate(26 18)"/><rect class="e" width="21" height="10" rx="5" transform="translate(26 49)"/><rect class="e" width="30" height="10" rx="5" transform="translate(57 49)"/><rect class="e" width="36" height="10" rx="5" transform="translate(95 49)"/><rect class="e" width="35" height="10" rx="3" transform="translate(293 49)"/><g transform="translate(295 18)"><rect class="d" width="10" height="10" rx="5"/><rect class="d" width="10" height="10" rx="5" transform="translate(23)"/><rect class="d" width="10" height="10" rx="5" transform="translate(13)"/></g></g><g transform="translate(67 264)"><g class="b"><rect class="g" width="74" height="79" rx="7"/><rect class="h" x="0.5" y="0.5" width="73" height="78" rx="6.5"/></g><g transform="translate(8 15)"><ellipse class="f" cx="29.5" cy="22" rx="29.5" ry="22" transform="translate(0 19)"/><ellipse class="f" cx="14.5" cy="14" rx="14.5" ry="14" transform="translate(23)"/><ellipse class="f" cx="14.5" cy="14" rx="14.5" ry="14" transform="translate(7)"/></g><ellipse cx="7.5" cy="7" rx="7.5" ry="7" transform="translate(30 27)"/><rect width="12" height="20" rx="2" transform="translate(31)"/></g><g transform="translate(199 264)"><rect class="f" width="10" height="79" rx="5"/><rect class="f" width="10" height="79" rx="5" transform="translate(342)"/><rect class="f" width="352" height="10" rx="5" transform="translate(0 69)"/><rect class="f" width="352" height="10" rx="5"/><rect class="f" width="96" height="10" rx="5" transform="translate(26 18)"/><rect class="f" width="21" height="10" rx="5" transform="translate(26 49)"/><rect class="f" width="30" height="10" rx="5" transform="translate(57 49)"/><rect class="f" width="36" height="10" rx="5" transform="translate(95 49)"/><rect class="f" width="35" height="10" rx="3" transform="translate(293 49)"/><g transform="translate(295 18)"><rect class="d" width="10" height="10" rx="5"/><rect class="d" width="10" height="10" rx="5" transform="translate(23)"/><rect class="d" width="10" height="10" rx="5" transform="translate(13)"/></g></g></svg>